<?xml version="1.0" encoding="UTF-8" standalone="no"?>
<!DOCTYPE svg PUBLIC "-//W3C//DTD SVG 1.1//EN" "http://www.w3.org/Graphics/SVG/1.1/DTD/svg11.dtd">
<svg width="100%" height="100%" viewBox="0 0 852 174" version="1.1" xmlns="http://www.w3.org/2000/svg" xmlns:xlink="http://www.w3.org/1999/xlink" xml:space="preserve" xmlns:serif="http://www.serif.com/" style="fill-rule:evenodd;clip-rule:evenodd;stroke-linejoin:round;stroke-miterlimit:2;">
    <g transform="matrix(1,0,0,1,-136.718,-453.208)">
        <g>
            <g>
                <g transform="matrix(0.797468,0,0,0.797468,30.0393,144.456)">
                    <path d="M269.917,417C273.529,417 276.952,417.715 280.187,419.144C283.422,420.574 286.206,422.455 288.539,424.787C290.871,427.12 292.752,429.903 294.181,433.139C295.611,436.374 296.326,439.797 296.326,443.409L296.326,548.591C296.326,552.203 295.611,555.626 294.181,558.861C292.752,562.097 290.871,564.918 288.539,567.326C286.206,569.733 283.422,571.614 280.187,572.969C276.952,574.323 273.529,575 269.917,575L190.014,575C186.403,575 182.98,574.323 179.744,572.969C176.509,571.614 173.688,569.733 171.28,567.326C168.872,564.918 166.991,562.097 165.637,558.861C164.283,555.626 163.606,552.203 163.606,548.591L163.606,443.409C163.606,439.797 164.283,436.374 165.637,433.139C166.991,429.903 168.872,427.12 171.28,424.787C173.688,422.455 176.509,420.574 179.744,419.144C182.98,417.715 186.403,417 190.014,417L269.917,417ZM256.374,455.371L203.331,455.371L203.331,536.629L256.374,536.629L256.374,455.371Z" style="fill:rgb(90,70,113);fill-rule:nonzero;"/>
                </g>
                <g transform="matrix(0.849515,0,0,0.849515,-42.4922,206.853)">
                    <g transform="matrix(142.397,0,0,142.397,1196.79,442)">
                    </g>
                    <text x="248px" y="442px" style="font-family:'Outage-Regular', 'Outage';font-weight:700;font-size:142.397px;fill:white;">H<tspan x="361.49px 474.411px 562.27px 675.19px 779.709px 885.225px 998.146px 1097.97px " y="442px 442px 442px 442px 442px 442px 442px 442px ">oloscope</tspan></text>
                </g>
            </g>
            <g>
                <g transform="matrix(0.797468,0,0,0.797468,30.0393,144.456)">
                    <path d="M269.917,417C273.529,417 276.952,417.715 280.187,419.144C283.422,420.574 286.206,422.455 288.539,424.787C290.871,427.12 292.752,429.903 294.181,433.139C295.611,436.374 296.326,439.797 296.326,443.409L296.326,548.591C296.326,552.203 295.611,555.626 294.181,558.861C292.752,562.097 290.871,564.918 288.539,567.326C286.206,569.733 283.422,571.614 280.187,572.969C276.952,574.323 273.529,575 269.917,575L190.014,575C186.403,575 182.98,574.323 179.744,572.969C176.509,571.614 173.688,569.733 171.28,567.326C168.872,564.918 166.991,562.097 165.637,558.861C164.283,555.626 163.606,552.203 163.606,548.591L163.606,443.409C163.606,439.797 164.283,436.374 165.637,433.139C166.991,429.903 168.872,427.12 171.28,424.787C173.688,422.455 176.509,420.574 179.744,419.144C182.98,417.715 186.403,417 190.014,417L269.917,417ZM256.374,455.371L203.331,455.371L203.331,536.629L256.374,536.629L256.374,455.371Z" style="fill:rgb(90,70,113);fill-rule:nonzero;"/>
                </g>
                <g transform="matrix(0.849515,0,0,0.849515,-42.4922,206.853)">
                    <g transform="matrix(142.397,0,0,142.397,1196.79,442)">
                    </g>
                    <text x="248px" y="442px" style="font-family:'Outage-Regular', 'Outage';font-weight:700;font-size:142.397px;fill:white;">H<tspan x="361.49px 474.411px 562.27px 675.19px 779.709px 885.225px 998.146px 1097.97px " y="442px 442px 442px 442px 442px 442px 442px 442px ">oloscope</tspan></text>
                </g>
            </g>
        </g>
    </g>
</svg>
